<?xml version="1.0" encoding="utf-8"?>
<!-- Generator: Adobe Illustrator 25.1.0, SVG Export Plug-In . SVG Version: 6.00 Build 0)  -->
<svg version="1.1" id="Layer_1" xmlns="http://www.w3.org/2000/svg" xmlns:xlink="http://www.w3.org/1999/xlink" x="0px" y="0px"
	 viewBox="0 0 400 400" style="enable-background:new 0 0 400 400;" xml:space="preserve">
<g>
	<path d="M146.85,42.68l-2.37,0.82l-20.36-24.3l-0.29,0.1l14.47,41.67l-4.39,1.52l-15.74-45.34l7.48-2.6l17.58,21.16l0.22-0.07
		l-0.1-27.22l7.48-2.6l15.74,45.34l-4.6,1.6l-14.47-41.67l-0.29,0.1L146.85,42.68z"/>
	<path d="M208.62,43.72l0.2,4.19l-30.11,1.44L176.43,1.4L205.85,0l0.2,4.18l-24.63,1.18l0.79,16.67l17.56-0.84l0.2,4.26l-17.56,0.84
		l0.89,18.64L208.62,43.72z"/>
	<path d="M235.29,3.33l14.37,44.3l9.31-38.59l4.44,1.07l-11.25,46.66l-4-0.96L232.74,9.38L223,49.74l-4.44-1.07l11.25-46.66
		L235.29,3.33z"/>
	<path d="M266.57,58.5c-0.95-4.69,0.14-9.76,3.29-15.21l14.37-24.87l4.28,2.48l-14.37,24.87c-2.57,4.44-3.6,8.38-3.09,11.81
		s2.52,6.16,6.03,8.19c3.52,2.03,6.9,2.41,10.17,1.12c3.26-1.28,6.16-4.12,8.7-8.52l14.37-24.87l4.15,2.4l-14.37,24.87
		c-3.15,5.45-7,8.94-11.53,10.45c-4.54,1.51-9.09,0.95-13.66-1.69C270.31,66.86,267.52,63.19,266.57,58.5z"/>
	<path d="M353.49,137.72l-0.96-2.32l23.06-21.76l-0.12-0.28l-40.75,16.89l-1.78-4.29l44.34-18.38l3.03,7.31l-20.09,18.79l0.09,0.21
		l27.17-1.71l3.03,7.31l-44.34,18.38l-1.86-4.5l40.75-16.89l-0.12-0.28L353.49,137.72z"/>
	<path d="M356.09,199.48l-4.17,0.44l-3.2-29.97l47.73-5.09l3.12,29.29l-4.17,0.44l-2.62-24.52l-16.59,1.77l1.86,17.48l-4.24,0.45
		l-1.86-17.48l-18.56,1.98L356.09,199.48z"/>
	<path d="M397.99,223.66l-43.36,17.01l39.08,6.97l-0.8,4.5l-47.25-8.43l0.72-4.05l45.43-18.18l-40.88-7.29l0.8-4.5l47.25,8.43
		L397.99,223.66z"/>
	<path d="M344.79,258.23c4.62-1.23,9.75-0.44,15.38,2.37l25.69,12.85l-2.21,4.43l-25.69-12.85c-4.59-2.29-8.58-3.08-11.98-2.37
		c-3.4,0.71-6,2.89-7.82,6.52c-1.82,3.63-1.99,7.04-0.51,10.21c1.48,3.18,4.49,5.9,9.03,8.17l25.69,12.85l-2.14,4.29l-25.69-12.85
		c-5.63-2.82-9.34-6.44-11.13-10.88c-1.78-4.44-1.5-9.02,0.86-13.74C336.67,262.46,340.17,259.46,344.79,258.23z"/>
	<path d="M270.96,349.74l2.26-1.1l23.11,21.71l0.27-0.13l-19.32-39.66l4.17-2.03l21.02,43.15l-7.12,3.47l-19.97-18.92l-0.21,0.1
		l3.34,27.02l-7.12,3.47l-21.02-43.15l4.38-2.13l19.32,39.65l0.27-0.13L270.96,349.74z"/>
	<path d="M209.47,356.04l-0.69-4.13l29.73-4.97l7.92,47.34l-29.05,4.86l-0.69-4.13l24.32-4.07l-2.75-16.46l-17.34,2.9l-0.7-4.21
		l17.34-2.9l-3.08-18.41L209.47,356.04z"/>
	<path d="M187.76,399.26l-19.52-42.28l-4.67,39.42l-4.54-0.54l5.65-47.66l4.08,0.48l20.82,44.28l4.89-41.23l4.54,0.54l-5.65,47.66
		L187.76,399.26z"/>
	<path d="M150.19,348.21c1.5,4.54,1.01,9.71-1.47,15.49l-11.32,26.4l-4.55-1.95l11.32-26.4c2.02-4.71,2.58-8.75,1.67-12.09
		c-0.91-3.35-3.23-5.82-6.96-7.42c-3.73-1.6-7.14-1.57-10.23,0.09c-3.09,1.66-5.63,4.82-7.63,9.49l-11.32,26.4l-4.41-1.89
		l11.32-26.4c2.48-5.79,5.89-9.7,10.21-11.74c4.33-2.04,8.91-2.02,13.76,0.06C145.49,340.35,148.69,343.67,150.19,348.21z"/>
	<path d="M54.54,279.79l1.23,2.19l-20.33,24.33l0.15,0.27l38.46-21.6l2.27,4.05l-41.85,23.5l-3.88-6.9l17.72-21.04l-0.11-0.2
		l-26.78,4.91l-3.88-6.9l41.85-23.5l2.38,4.25l-38.46,21.6l0.15,0.27L54.54,279.79z"/>
	<path d="M44.64,218.78l4.09-0.93l6.71,29.39l-46.79,10.7l-6.56-28.72l4.09-0.93l5.49,24.04l16.27-3.72l-3.92-17.14l4.16-0.95
		l3.92,17.14l18.2-4.16L44.64,218.78z"/>
	<path d="M0.23,199.68l41.06-21.99l-39.63-2.33l0.27-4.56l47.92,2.82l-0.24,4.1l-42.97,23.4l41.45,2.44l-0.27,4.56l-47.92-2.82
		L0.23,199.68z"/>
	<path d="M48.96,159.11c-4.44,1.78-9.63,1.6-15.55-0.53l-27.03-9.71l1.67-4.66l27.03,9.71c4.83,1.73,8.89,2.04,12.17,0.93
		s5.62-3.58,6.99-7.4c1.37-3.82,1.14-7.22-0.71-10.2c-1.84-2.98-5.16-5.33-9.94-7.05l-27.03-9.71l1.62-4.51l27.03,9.71
		c5.93,2.13,10.04,5.29,12.34,9.49c2.3,4.19,2.56,8.78,0.77,13.74C56.52,153.94,53.4,157.34,48.96,159.11z"/>
</g>
</svg>
